<?xml version="1.0" encoding="UTF-8" standalone="no"?>
<svg
   version="1.1"
   width="1000"
   height="1000"
   viewBox="0 0 1000 1000"
   id="svg1"
   xmlns="http://www.w3.org/2000/svg"
   xmlns:svg="http://www.w3.org/2000/svg">
  <defs
     id="defs1" />
  <g
     id="l_small"
     style="display:inline">
    <path
       id="sm_bg"
       style="display:inline;fill:#ffffff;stroke-width:0.390625;stroke-linecap:round;stroke-linejoin:round"
       d="m 30,970 v 30 h 940 v -30 h 30 V 30 H 970 V 0 H 30 V 30 H 0 v 940 z" />
    <path
       id="sm_win"
       fill="none"
       stroke-width="1.28263"
       d="M 50,920 V 80 H 80 V 50 h 840 v 30 h 30 v 840 h -30 v 30 H 80 v -30 z"
       style="display:inline;fill:#000000;fill-opacity:1" />
    <path
       d="M 335.89741,100 H 500 v 164.10257 h 164.10256 v 123.0769 H 500 l 1.09055,389.74364 H 664.10256 V 674.35901 H 766.66668 V 900 H 438.46154 V 879.48726 H 397.43589 V 858.97435 H 376.92306 V 817.94882 H 335.89741 V 387.17947 H 233.33332 v -123.0769 c 0,0 61.53846,0 82.05127,0 13.1698,0 20.51282,-9.42808 20.51282,-20.51281 0,-47.86327 0,-143.58975 0,-143.58976 z"
       style="display:inline;fill:#ffffff;fill-opacity:1;stroke:none;stroke-width:2.62922"
       id="sm_t" />
  </g>
</svg>
